<?xml version="1.0" encoding="UTF-8" standalone="no"?>
<svg
   height="128"
   width="128"
   version="1.1"
   id="svg166"
   sodipodi:docname="bishop.svg"
   inkscape:version="1.3 (1:1.3+202307231459+0e150ed6c4)"
   xmlns:inkscape="http://www.inkscape.org/namespaces/inkscape"
   xmlns:sodipodi="http://sodipodi.sourceforge.net/DTD/sodipodi-0.dtd"
   xmlns="http://www.w3.org/2000/svg"
   xmlns:svg="http://www.w3.org/2000/svg">
  <defs
     id="defs170" />
  <sodipodi:namedview
     id="namedview168"
     pagecolor="#ffffff"
     bordercolor="#999999"
     borderopacity="1"
     inkscape:showpageshadow="0"
     inkscape:pageopacity="0"
     inkscape:pagecheckerboard="true"
     inkscape:deskcolor="#d1d1d1"
     showgrid="true"
     inkscape:zoom="4.4912329"
     inkscape:cx="18.035137"
     inkscape:cy="84.2753"
     inkscape:window-width="1920"
     inkscape:window-height="1043"
     inkscape:window-x="0"
     inkscape:window-y="0"
     inkscape:window-maximized="1"
     inkscape:current-layer="svg166">
    <inkscape:grid
       id="grid1"
       units="px"
       originx="0"
       originy="0"
       spacingx="1"
       spacingy="1"
       empcolor="#0099e5"
       empopacity="0.83921569"
       color="#0099e5"
       opacity="0.14901961"
       empspacing="8"
       dotted="false"
       gridanglex="30"
       gridanglez="30"
       visible="true" />
    <inkscape:grid
       id="grid2"
       units="px"
       originx="0"
       originy="0"
       spacingx="1"
       spacingy="1"
       empcolor="#e10000"
       empopacity="0.10588235"
       color="#0099e5"
       opacity="0.14901961"
       empspacing="1"
       dotted="false"
       gridanglex="30"
       gridanglez="30"
       visible="true" />
  </sodipodi:namedview>
  <path
     id="path1"
     style="fill:#808080;stroke-width:1.73789;-inkscape-stroke:none"
     d="M 63.962891,16.275391 A 32.037601,42.548477 0 0 0 31.923828,58.824219 32.037601,42.548477 0 0 0 37.523438,82.697266 28.313332,28.313332 0 0 1 64.3125,63.373047 28.313332,28.313332 0 0 1 90.873047,81.892578 32.037601,42.548477 0 0 0 96,58.824219 32.037601,42.548477 0 0 0 63.962891,16.275391 Z M 60,31.373047 h 8 v 4 h 6 v 8 h -6 v 12 h -8 v -12 h -6 v -8 h 6 z" />
  <ellipse
     style="fill:#808080;stroke-width:0.434473;-inkscape-stroke:none"
     id="path1-3"
     cx="63.962399"
     cy="10.957535"
     rx="10.689375"
     ry="10.637119" />
  <path
     id="path2"
     style="fill:#808080;fill-opacity:1;stroke-width:1.22708;-inkscape-stroke:none"
     d="M 64.3125,66 A 25.686668,25.686668 0 0 0 38.626953,91.685547 25.686668,25.686668 0 0 0 64.3125,117.37305 25.686668,25.686668 0 0 0 90,91.685547 25.686668,25.686668 0 0 0 64.3125,66 Z M 56,79.373047 a 4.0000005,3.9999983 0 0 1 4,4 4.0000005,3.9999983 0 0 1 -4,4 4.0000005,3.9999983 0 0 1 -4,-4 4.0000005,3.9999983 0 0 1 4,-4 z m 16,0 a 4.0000005,3.9999983 0 0 1 4,4 4.0000005,3.9999983 0 0 1 -4,4 4.0000005,3.9999983 0 0 1 -4,-4 4.0000005,3.9999983 0 0 1 4,-4 z" />
</svg>
