<?xml version="1.0" encoding="UTF-8" standalone="no"?>
<svg
   height="128"
   width="128"
   version="1.1"
   id="svg166"
   sodipodi:docname="queen.svg"
   inkscape:version="1.3 (1:1.3+202307231459+0e150ed6c4)"
   xmlns:inkscape="http://www.inkscape.org/namespaces/inkscape"
   xmlns:sodipodi="http://sodipodi.sourceforge.net/DTD/sodipodi-0.dtd"
   xmlns="http://www.w3.org/2000/svg"
   xmlns:svg="http://www.w3.org/2000/svg">
  <defs
     id="defs170" />
  <sodipodi:namedview
     id="namedview168"
     pagecolor="#ffffff"
     bordercolor="#999999"
     borderopacity="1"
     inkscape:showpageshadow="0"
     inkscape:pageopacity="0"
     inkscape:pagecheckerboard="true"
     inkscape:deskcolor="#d1d1d1"
     showgrid="true"
     inkscape:zoom="12.703125"
     inkscape:cx="58.725707"
     inkscape:cy="68.250923"
     inkscape:window-width="1920"
     inkscape:window-height="1016"
     inkscape:window-x="1920"
     inkscape:window-y="27"
     inkscape:window-maximized="1"
     inkscape:current-layer="svg166">
    <inkscape:grid
       id="grid1"
       units="px"
       originx="0"
       originy="0"
       spacingx="1"
       spacingy="1"
       empcolor="#0099e5"
       empopacity="0.83921569"
       color="#0099e5"
       opacity="0.14901961"
       empspacing="8"
       dotted="false"
       gridanglex="30"
       gridanglez="30"
       visible="true" />
    <inkscape:grid
       id="grid2"
       units="px"
       originx="0"
       originy="0"
       spacingx="1"
       spacingy="1"
       empcolor="#e10000"
       empopacity="0.10588235"
       color="#0099e5"
       opacity="0.14901961"
       empspacing="1"
       dotted="false"
       gridanglex="30"
       gridanglez="30"
       visible="true" />
  </sodipodi:namedview>
  <path
     id="path2"
     style="fill:#808080;fill-opacity:1;stroke-width:1.22708;-inkscape-stroke:none"
     d="M 43.677734 76.5 A 25.686668 25.686668 0 0 0 38.626953 91.685547 A 25.686668 25.686668 0 0 0 64.3125 117.37305 A 25.686668 25.686668 0 0 0 90 91.685547 A 25.686668 25.686668 0 0 0 84.949219 76.5 L 43.677734 76.5 z M 56 79.373047 A 4.0000005 3.9999983 0 0 1 60 83.373047 A 4.0000005 3.9999983 0 0 1 56 87.373047 A 4.0000005 3.9999983 0 0 1 52 83.373047 A 4.0000005 3.9999983 0 0 1 56 79.373047 z M 72 79.373047 A 4.0000005 3.9999983 0 0 1 76 83.373047 A 4.0000005 3.9999983 0 0 1 72 87.373047 A 4.0000005 3.9999983 0 0 1 68 83.373047 A 4.0000005 3.9999983 0 0 1 72 79.373047 z " />
  <rect
     style="fill:#808080;stroke-width:1.19668;-inkscape-stroke:none"
     id="rect1"
     width="56"
     height="12.068913"
     x="36"
     y="63.931087"
     rx="3.6242614"
     ry="4.6865239" />
  <rect
     style="fill:#808080;stroke-width:0.65109;-inkscape-stroke:none"
     id="rect2"
     width="10.000001"
     height="10.000001"
     x="78.333336"
     y="-28.333334"
     rx="0"
     ry="0"
     transform="matrix(0.59999998,0.80000002,-0.59999998,0.80000002,0,0)" />
  <path
     id="rect3"
     style="fill:#808080;stroke-width:1.20027;-inkscape-stroke:none"
     d="M 59.085938 49 A 5.5 8.5 0 0 1 62 56.5 A 5.5 8.5 0 0 1 59 64.052734 L 59 67 L 69 67 L 69 64.052734 A 5.5 8.5 0 0 1 66 56.5 A 5.5 8.5 0 0 1 68.931641 49 L 59.085938 49 z " />
  <rect
     style="fill:#808080;stroke-width:0.65109;-inkscape-stroke:none"
     id="rect2-5"
     width="10.000001"
     height="10.000001"
     x="95.000008"
     y="-45"
     rx="0"
     ry="0"
     transform="matrix(0.59999998,0.80000002,-0.59999998,0.80000002,0,0)" />
  <path
     id="rect3-3"
     style="fill:#808080;stroke-width:1.20027;-inkscape-stroke:none"
     d="M 79.085938 49 A 5.5 8.5 0 0 1 82 56.5 A 5.5 8.5 0 0 1 79 64.052734 L 79 67 L 89 67 L 89 64.052734 A 5.5 8.5 0 0 1 86 56.5 A 5.5 8.5 0 0 1 88.931641 49 L 79.085938 49 z " />
  <rect
     style="fill:#808080;stroke-width:0.65109;-inkscape-stroke:none"
     id="rect2-5-5"
     width="10.000001"
     height="10.000001"
     x="61.666672"
     y="-11.666664"
     rx="0"
     ry="0"
     transform="matrix(0.59999998,0.80000002,-0.59999998,0.80000002,0,0)" />
  <path
     id="rect3-3-6"
     style="fill:#808080;stroke-width:1.20027;-inkscape-stroke:none"
     d="M 39.085938 49 A 5.5 8.5 0 0 1 42 56.5 A 5.5 8.5 0 0 1 39 64.052734 L 39 67 L 49 67 L 49 64.052734 A 5.5 8.5 0 0 1 46 56.5 A 5.5 8.5 0 0 1 48.931641 49 L 39.085938 49 z " />
</svg>
