<?xml version="1.0" encoding="UTF-8" standalone="no"?>
<svg
   height="128"
   width="128"
   version="1.1"
   id="svg166"
   sodipodi:docname="knight.svg"
   inkscape:version="1.3 (1:1.3+202307231459+0e150ed6c4)"
   xmlns:inkscape="http://www.inkscape.org/namespaces/inkscape"
   xmlns:sodipodi="http://sodipodi.sourceforge.net/DTD/sodipodi-0.dtd"
   xmlns="http://www.w3.org/2000/svg"
   xmlns:svg="http://www.w3.org/2000/svg">
  <defs
     id="defs170" />
  <sodipodi:namedview
     id="namedview168"
     pagecolor="#ffffff"
     bordercolor="#999999"
     borderopacity="1"
     inkscape:showpageshadow="0"
     inkscape:pageopacity="0"
     inkscape:pagecheckerboard="true"
     inkscape:deskcolor="#d1d1d1"
     showgrid="true"
     inkscape:zoom="4.4912329"
     inkscape:cx="64.792899"
     inkscape:cy="62.121027"
     inkscape:window-width="1920"
     inkscape:window-height="1016"
     inkscape:window-x="1920"
     inkscape:window-y="27"
     inkscape:window-maximized="1"
     inkscape:current-layer="svg166">
    <inkscape:grid
       id="grid1"
       units="px"
       originx="0"
       originy="0"
       spacingx="1"
       spacingy="1"
       empcolor="#0099e5"
       empopacity="0.83921569"
       color="#0099e5"
       opacity="0.14901961"
       empspacing="8"
       dotted="false"
       gridanglex="30"
       gridanglez="30"
       visible="true" />
    <inkscape:grid
       id="grid2"
       units="px"
       originx="0"
       originy="0"
       spacingx="1"
       spacingy="1"
       empcolor="#e10000"
       empopacity="0.10588235"
       color="#0099e5"
       opacity="0.14901961"
       empspacing="1"
       dotted="false"
       gridanglex="30"
       gridanglez="30"
       visible="true" />
  </sodipodi:namedview>
  <path
     id="path2"
     style="fill:#808080;fill-opacity:1;stroke-width:1.22708;-inkscape-stroke:none"
     d="M 65.685547,56 A 25.686668,25.686668 0 0 0 40,81.685547 a 25.686668,25.686668 0 0 0 0.150391,2.109375 l 23.404297,5.978516 -4.640626,16.660152 a 25.686668,25.686668 0 0 0 6.771485,0.93946 25.686668,25.686668 0 0 0 25.6875,-25.687503 A 25.686668,25.686668 0 0 0 65.685547,56 Z m -8.3125,13.373047 a 4.0000005,3.9999983 0 0 1 4,4 4.0000005,3.9999983 0 0 1 -4,4 4.0000005,3.9999983 0 0 1 -4,-4 4.0000005,3.9999983 0 0 1 4,-4 z m 16,0 a 4.0000005,3.9999983 0 0 1 4,4 4.0000005,3.9999983 0 0 1 -4,4 4.0000005,3.9999983 0 0 1 -4,-4 4.0000005,3.9999983 0 0 1 4,-4 z" />
  <g
     id="g4"
     transform="translate(-8,12)">
    <rect
       style="fill:#808080;fill-opacity:1;stroke-width:1.64408;-inkscape-stroke:none"
       id="rect1"
       width="8"
       height="40"
       x="104"
       y="48" />
    <path
       sodipodi:type="star"
       style="fill:#808080;fill-opacity:1;stroke-width:1.16147;-inkscape-stroke:none"
       id="path1"
       inkscape:flatsided="false"
       sodipodi:sides="3"
       sodipodi:cx="26.561188"
       sodipodi:cy="19.715275"
       sodipodi:r1="7.4226947"
       sodipodi:r2="3.7113476"
       sodipodi:arg1="0.52359878"
       sodipodi:arg2="1.5707963"
       inkscape:rounded="0"
       inkscape:randomized="0"
       d="m 32.98943,23.426622 -6.428242,0 -6.428242,0 3.21412,-5.567021 3.214122,-5.567021 3.214121,5.567021 z"
       inkscape:transform-center-y="-1.8556741"
       transform="matrix(0.62225411,0,0,0.99999996,91.472192,24.573378)" />
    <rect
       style="fill:#808080;fill-opacity:1;stroke-width:1.29819;-inkscape-stroke:none"
       id="rect2"
       width="24"
       height="8"
       x="96"
       y="88"
       rx="4"
       ry="4" />
    <rect
       style="fill:#808080;fill-opacity:1;stroke-width:1.29819;-inkscape-stroke:none"
       id="rect2-3"
       width="24"
       height="8"
       x="92"
       y="-112"
       rx="4"
       ry="4"
       transform="rotate(90)" />
  </g>
  <g
     id="g5"
     transform="translate(0,16)">
    <path
       sodipodi:type="star"
       style="fill:#808080;fill-opacity:1;stroke-width:1.16147;-inkscape-stroke:none"
       id="path4"
       inkscape:flatsided="false"
       sodipodi:sides="3"
       sodipodi:cx="6.4689832"
       sodipodi:cy="99.112259"
       sodipodi:r1="9.8586073"
       sodipodi:r2="7.4482374"
       sodipodi:arg1="1.5707963"
       sodipodi:arg2="2.6179939"
       inkscape:rounded="0"
       inkscape:randomized="0"
       d="m 6.4689834,108.97087 -6.45036313,-6.13449 -2.08744157,-8.653425 8.5378046,-2.518934 8.5378037,2.518934 -2.087441,8.653425 z"
       inkscape:transform-center-y="6.2152215"
       transform="matrix(2.9118578,0,0,2.5217424,18.302369,-163.15305)" />
  </g>
</svg>
