<?xml version="1.0" encoding="UTF-8" standalone="no"?>
<svg
   height="128"
   width="128"
   version="1.1"
   id="svg166"
   sodipodi:docname="pawn.svg"
   inkscape:version="1.3 (1:1.3+202307231459+0e150ed6c4)"
   xmlns:inkscape="http://www.inkscape.org/namespaces/inkscape"
   xmlns:sodipodi="http://sodipodi.sourceforge.net/DTD/sodipodi-0.dtd"
   xmlns="http://www.w3.org/2000/svg"
   xmlns:svg="http://www.w3.org/2000/svg">
  <defs
     id="defs170" />
  <sodipodi:namedview
     id="namedview168"
     pagecolor="#ffffff"
     bordercolor="#999999"
     borderopacity="1"
     inkscape:showpageshadow="0"
     inkscape:pageopacity="0"
     inkscape:pagecheckerboard="true"
     inkscape:deskcolor="#d1d1d1"
     showgrid="true"
     inkscape:zoom="2.828427"
     inkscape:cx="-11.667262"
     inkscape:cy="81.847613"
     inkscape:window-width="1920"
     inkscape:window-height="1043"
     inkscape:window-x="0"
     inkscape:window-y="0"
     inkscape:window-maximized="1"
     inkscape:current-layer="svg166">
    <inkscape:grid
       id="grid1"
       units="px"
       originx="0"
       originy="0"
       spacingx="1"
       spacingy="1"
       empcolor="#0099e5"
       empopacity="0.83921569"
       color="#0099e5"
       opacity="0.14901961"
       empspacing="8"
       dotted="false"
       gridanglex="30"
       gridanglez="30"
       visible="true" />
    <inkscape:grid
       id="grid2"
       units="px"
       originx="0"
       originy="0"
       spacingx="1"
       spacingy="1"
       empcolor="#e10000"
       empopacity="0.10588235"
       color="#0099e5"
       opacity="0.14901961"
       empspacing="1"
       dotted="false"
       gridanglex="30"
       gridanglez="30"
       visible="true" />
  </sodipodi:namedview>
  <path
     id="path2"
     style="fill:#808080;fill-opacity:1;stroke-width:1.22708;-inkscape-stroke:none"
     d="M 46,68.46875 V 82 H 45.550781 44 38.736328 A 25.686668,25.686668 0 0 0 64.3125,106 25.686668,25.686668 0 0 0 89.9375,82 H 85 83.076172 83 V 68.46875 H 77.716797 A 3.9506798,3.9506798 0 0 1 80,72.048828 3.9506798,3.9506798 0 0 1 76.048828,76 3.9506798,3.9506798 0 0 1 72.099609,72.048828 3.9506798,3.9506798 0 0 1 74.382812,68.46875 H 68 V 82 H 67.460938 67 61 60.539062 60 V 68.46875 H 53.716797 A 3.9506798,3.9506798 0 0 1 56,72.048828 3.9506798,3.9506798 0 0 1 52.048828,76 3.9506798,3.9506798 0 0 1 48.099609,72.048828 3.9506798,3.9506798 0 0 1 50.382812,68.46875 Z" />
  <path
     id="path2-3"
     style="fill:#808080;fill-opacity:1;stroke-width:1.22708;-inkscape-stroke:none"
     d="M 64.376953,44 A 25.686668,25.686668 0 0 0 38.810547,68 h 6 V 67 H 61 v 1 h 6 v -1 h 17 v 1 h 6 A 25.686668,25.686668 0 0 0 64.376953,44 Z" />
  <rect
     style="fill:#808080;stroke-width:1.29045;-inkscape-stroke:none"
     id="rect1"
     width="8"
     height="108"
     x="96"
     y="20"
     rx="3.6074047"
     ry="4.4272695" />
  <path
     sodipodi:type="star"
     style="fill:#808080;stroke-width:1.16147;-inkscape-stroke:none"
     id="path1"
     inkscape:flatsided="false"
     sodipodi:sides="3"
     sodipodi:cx="56.235355"
     sodipodi:cy="15.398538"
     sodipodi:r1="15.713293"
     sodipodi:r2="7.856647"
     sodipodi:arg1="0.52359878"
     sodipodi:arg2="1.5707963"
     inkscape:rounded="0"
     inkscape:randomized="0"
     d="m 69.843466,23.255184 -13.60811,1e-6 -13.608112,-1e-6 6.804055,-11.78497 6.804056,-11.78496944 6.804056,11.78496944 z"
     inkscape:transform-center-y="-4"
     transform="matrix(0.88182701,0,0,1.0182461,50.410145,4.320498)" />
  <rect
     style="fill:#808080;stroke-width:1.2028;-inkscape-stroke:none"
     id="rect2"
     width="6"
     height="13"
     x="61"
     y="68" />
  <rect
     style="fill:#808080;stroke-width:1.2028;-inkscape-stroke:none"
     id="rect2-7"
     width="6"
     height="13"
     x="84"
     y="68" />
  <rect
     style="fill:#808080;stroke-width:1.2028;-inkscape-stroke:none"
     id="rect2-5"
     width="6"
     height="13"
     x="38.810547"
     y="68" />
</svg>
