<?xml version="1.0" encoding="UTF-8" standalone="no"?>
<svg
   height="128"
   width="128"
   version="1.1"
   id="svg1651"
   sodipodi:docname="pawn.svg"
   inkscape:version="1.2.2 (732a01da63, 2022-12-09, custom)"
   xmlns:inkscape="http://www.inkscape.org/namespaces/inkscape"
   xmlns:sodipodi="http://sodipodi.sourceforge.net/DTD/sodipodi-0.dtd"
   xmlns="http://www.w3.org/2000/svg"
   xmlns:svg="http://www.w3.org/2000/svg">
  <defs
     id="defs1655" />
  <sodipodi:namedview
     id="namedview1653"
     pagecolor="#ffffff"
     bordercolor="#999999"
     borderopacity="1"
     inkscape:showpageshadow="0"
     inkscape:pageopacity="0"
     inkscape:pagecheckerboard="0"
     inkscape:deskcolor="#d1d1d1"
     showgrid="false"
     inkscape:zoom="4.8337378"
     inkscape:cx="59.581221"
     inkscape:cy="76.028121"
     inkscape:window-width="960"
     inkscape:window-height="1016"
     inkscape:window-x="1920"
     inkscape:window-y="27"
     inkscape:window-maximized="0"
     inkscape:current-layer="svg1651" />
  <rect
     x="2"
     y="2"
     width="124"
     height="124"
     rx="14"
     fill="#363d52"
     stroke="#212532"
     stroke-width="4"
     id="rect1629" />
  <g
     transform="scale(.101) translate(122 122)"
     id="g1649">
    <g
       fill="#fff"
       id="g1641">
      <path
         d="M105 673v33q407 354 814 0v-33z"
         id="path1631" />
      <path
         fill="#478cbf"
         d="m105 673 152 14q12 1 15 14l4 67 132 10 8-61q2-11 15-15h162q13 4 15 15l8 61 132-10 4-67q3-13 15-14l152-14V427q30-39 56-81-35-59-83-108-43 20-82 47-40-37-88-64 7-51 8-102-59-28-123-42-26 43-46 89-49-7-98 0-20-46-46-89-64 14-123 42 1 51 8 102-48 27-88 64-39-27-82-47-48 49-83 108 26 42 56 81zm0 33v39c0 276 813 276 813 0v-39l-134 12-5 69q-2 10-14 13l-162 11q-12 0-16-11l-10-65H447l-10 65q-4 11-16 11l-162-11q-12-3-14-13l-5-69z"
         id="path1633" />
      <path
         d="M483 600c3 34 55 34 58 0v-86c-3-34-55-34-58 0z"
         id="path1635" />
      <circle
         cx="725"
         cy="526"
         r="90"
         id="circle1637" />
      <circle
         cx="299"
         cy="526"
         r="90"
         id="circle1639" />
    </g>
    <g
       fill="#414042"
       id="g1647">
      <circle
         cx="307"
         cy="532"
         r="60"
         id="circle1643" />
      <circle
         cx="717"
         cy="532"
         r="60"
         id="circle1645" />
    </g>
  </g>
  <circle
     style="fill:#000000;stroke:#000000;stroke-width:0.0861084"
     id="path2189"
     cx="63.827549"
     cy="27.990931"
     r="27.345903" />
</svg>
