<?xml version="1.0" encoding="UTF-8" standalone="no"?>
<svg
   height="128"
   width="128"
   version="1.1"
   id="svg166"
   sodipodi:docname="king.svg"
   inkscape:version="1.3 (1:1.3+202307231459+0e150ed6c4)"
   xmlns:inkscape="http://www.inkscape.org/namespaces/inkscape"
   xmlns:sodipodi="http://sodipodi.sourceforge.net/DTD/sodipodi-0.dtd"
   xmlns="http://www.w3.org/2000/svg"
   xmlns:svg="http://www.w3.org/2000/svg">
  <defs
     id="defs170" />
  <sodipodi:namedview
     id="namedview168"
     pagecolor="#ffffff"
     bordercolor="#999999"
     borderopacity="1"
     inkscape:showpageshadow="0"
     inkscape:pageopacity="0"
     inkscape:pagecheckerboard="true"
     inkscape:deskcolor="#d1d1d1"
     showgrid="true"
     inkscape:zoom="12.703125"
     inkscape:cx="70.455105"
     inkscape:cy="77.776138"
     inkscape:window-width="1920"
     inkscape:window-height="1016"
     inkscape:window-x="1920"
     inkscape:window-y="27"
     inkscape:window-maximized="1"
     inkscape:current-layer="svg166">
    <inkscape:grid
       id="grid1"
       units="px"
       originx="0"
       originy="0"
       spacingx="1"
       spacingy="1"
       empcolor="#0099e5"
       empopacity="0.83921569"
       color="#0099e5"
       opacity="0.14901961"
       empspacing="8"
       dotted="false"
       gridanglex="30"
       gridanglez="30"
       visible="true" />
    <inkscape:grid
       id="grid2"
       units="px"
       originx="0"
       originy="0"
       spacingx="1"
       spacingy="1"
       empcolor="#e10000"
       empopacity="0.10588235"
       color="#0099e5"
       opacity="0.14901961"
       empspacing="1"
       dotted="false"
       gridanglex="30"
       gridanglez="30"
       visible="true" />
  </sodipodi:namedview>
  <path
     id="path2"
     style="fill:#808080;fill-opacity:1;stroke-width:1.22708;-inkscape-stroke:none"
     d="M 43.728516 76.431641 A 25.686668 25.686668 0 0 0 38.626953 91.685547 A 25.686668 25.686668 0 0 0 64.3125 117.37305 A 25.686668 25.686668 0 0 0 90 91.685547 A 25.686668 25.686668 0 0 0 84.898438 76.431641 L 43.728516 76.431641 z M 56 79.373047 A 4.0000005 3.9999983 0 0 1 60 83.373047 A 4.0000005 3.9999983 0 0 1 56 87.373047 A 4.0000005 3.9999983 0 0 1 52 83.373047 A 4.0000005 3.9999983 0 0 1 56 79.373047 z M 72 79.373047 A 4.0000005 3.9999983 0 0 1 76 83.373047 A 4.0000005 3.9999983 0 0 1 72 87.373047 A 4.0000005 3.9999983 0 0 1 68 83.373047 A 4.0000005 3.9999983 0 0 1 72 79.373047 z " />
  <rect
     style="fill:#808080;stroke-width:1.19668;-inkscape-stroke:none"
     id="rect1"
     width="56"
     height="12.068913"
     x="36"
     y="63.931087"
     rx="3.6242614"
     ry="4.6865239" />
  <circle
     style="fill:#808080;stroke-width:0.927143;-inkscape-stroke:none"
     id="path1"
     cx="37"
     cy="45"
     r="3" />
  <circle
     style="fill:#808080;stroke-width:0.927143;-inkscape-stroke:none"
     id="path1-9"
     cx="91"
     cy="45"
     r="3" />
  <circle
     style="fill:#808080;stroke-width:0.927143;-inkscape-stroke:none"
     id="path1-3"
     cx="64"
     cy="45"
     r="3" />
  <path
     id="path3"
     style="fill:#808080;stroke-width:1.35525"
     inkscape:transform-center-x="-4.1666674"
     d="M 62.000001,59.566243 37.000001,74 37,45.132487 c 0,0 3.235019,26.999775 25.000001,14.433756 z"
     sodipodi:nodetypes="sccs" />
  <path
     id="path3-2"
     style="fill:#808080;stroke-width:1.35525"
     inkscape:transform-center-x="4.1666673"
     d="M 66,59.433757 90.999999,73.867513 91,45 c 0,0 -3.087943,27.084689 -25,14.433757 z"
     sodipodi:nodetypes="sccs" />
  <path
     id="path3-6-0"
     style="fill:#808080;stroke-width:1.16147"
     inkscape:transform-center-x="-3.3254271e-06"
     inkscape:transform-center-y="-4.3333372"
     transform="matrix(-1.2126118,0,0,1.2135098,106.71331,4.9893392)"
     d="M 47.594217,55.220535 H 22.854232 L 35.224224,33.795079 Z"
     sodipodi:nodetypes="cccc" />
</svg>
